<svg width="58" height="44" viewBox="0 0 58 44" fill="none" xmlns="http://www.w3.org/2000/svg">
<path d="M36.3232 0C48.2307 0.000210283 57.8084 9.74821 57.8086 21.6797C57.8086 33.6113 48.2309 43.3601 36.3232 43.3604H21.4854C9.57785 43.36 0 33.6112 0 21.6797C0.000167404 9.74828 9.57795 0.000331025 21.4854 0H36.3232ZM21.4854 4C11.8286 4.00033 4.00017 11.9156 4 21.6797C4 31.2914 11.5859 39.1122 21.0342 39.3545L21.4854 39.3604H36.3232C45.8291 39.3601 53.5632 31.6899 53.8027 22.1367L53.8086 21.6797C53.8084 12.0681 46.2227 4.24803 36.7744 4.00586L36.3232 4H21.4854ZM20.3135 13.1006C20.55 13.1006 20.7558 13.1885 20.9307 13.3652L22.8281 15.2842H23.3994L25.2969 13.3652C25.4717 13.1885 25.6775 13.1006 25.9141 13.1006H32.9336C33.1907 13.1006 33.3193 13.2302 33.3193 13.4902V29.8701C33.3193 30.1301 33.1907 30.2598 32.9336 30.2598H28.8145C28.5574 30.2597 28.4287 30.1301 28.4287 29.8701V17H26.2529C25.8212 17.0002 25.6055 17.2186 25.6055 17.6553V29.8701C25.6055 30.1301 25.4768 30.2597 25.2197 30.2598H21.1006C20.8434 30.2598 20.7149 30.1301 20.7148 29.8701V17H18.5391C18.1071 17 17.8906 17.2185 17.8906 17.6553V29.8701C17.8906 30.1299 17.7627 30.2596 17.5059 30.2598H13.3857C13.1288 30.2597 13 30.13 13 29.8701V17.1094C13 16.8598 13.0878 16.6518 13.2627 16.4854L16.3486 13.3652C16.5234 13.1886 16.7293 13.1006 16.9658 13.1006H20.3135ZM38.6221 13.1006C38.8173 13.1007 38.987 13.1886 39.1309 13.3652L40.6426 15.1279L42.3242 13.2871C42.4374 13.1623 42.582 13.1006 42.7568 13.1006H44.4229C44.68 13.1006 44.8086 13.2302 44.8086 13.4902V16.8438C44.8086 17.0102 44.7979 17.1251 44.7773 17.1875C44.7567 17.2394 44.7008 17.2971 44.6084 17.3594L40.7812 20.2139V29.8701C40.7812 30.1299 40.6533 30.2596 40.3965 30.2598H36.2764C36.0194 30.2597 35.8906 30.13 35.8906 29.8701V13.4902C35.8906 13.2303 36.0194 13.1007 36.2764 13.1006H38.6221Z" fill="currentColor"/>
</svg>
