<svg width="1459" height="10" viewBox="0 0 1459 10" fill="none" xmlns="http://www.w3.org/2000/svg">
<path d="M1458.56 7.77832L1457.14 9.19238L1450.78 2.82812L1444.41 9.19238L1444.28 9.05664L1444.14 9.19238L1437.78 2.82812L1431.41 9.19238L1431.28 9.05664L1431.14 9.19238L1424.78 2.82812L1418.41 9.19238L1418.28 9.05664L1418.14 9.19238L1411.78 2.82812L1405.41 9.19238L1405.28 9.05664L1405.14 9.19238L1398.78 2.82812L1392.41 9.19238L1392.28 9.05664L1392.14 9.19238L1385.78 2.82812L1379.41 9.19238L1379.28 9.05664L1379.14 9.19238L1372.78 2.82812L1366.41 9.19238L1366.28 9.05664L1366.14 9.19238L1359.78 2.82812L1353.41 9.19238L1353.28 9.05664L1353.14 9.19238L1346.78 2.82812L1340.41 9.19238L1340.28 9.05664L1340.14 9.19238L1333.78 2.82812L1327.41 9.19238L1327.28 9.05664L1327.14 9.19238L1320.78 2.82812L1314.41 9.19238L1314.28 9.05664L1314.14 9.19238L1307.78 2.82812L1301.41 9.19238L1301.28 9.05664L1301.14 9.19238L1294.78 2.82812L1288.41 9.19238L1288.28 9.05664L1288.14 9.19238L1281.78 2.82812L1275.41 9.19238L1275.28 9.05664L1275.14 9.19238L1268.78 2.82812L1262.41 9.19238L1262.28 9.05664L1262.14 9.19238L1255.78 2.82812L1249.41 9.19238L1249.28 9.05664L1249.14 9.19238L1242.78 2.82812L1236.41 9.19238L1236.28 9.05664L1236.14 9.19238L1229.78 2.82812L1223.41 9.19238L1223.28 9.05664L1223.14 9.19238L1216.78 2.82812L1210.41 9.19238L1210.28 9.05664L1210.14 9.19238L1203.78 2.82812L1197.41 9.19238L1197.28 9.05664L1197.14 9.19238L1190.78 2.82812L1184.41 9.19238L1184.28 9.05664L1184.14 9.19238L1177.78 2.82812L1171.41 9.19238L1171.28 9.05664L1171.14 9.19238L1164.78 2.82812L1158.41 9.19238L1158.28 9.05664L1158.14 9.19238L1151.78 2.82812L1145.41 9.19238L1145.28 9.05664L1145.14 9.19238L1138.78 2.82812L1132.41 9.19238L1132.28 9.05664L1132.14 9.19238L1125.78 2.82812L1119.41 9.19238L1119.28 9.05664L1119.14 9.19238L1112.78 2.82812L1106.41 9.19238L1106.28 9.05664L1106.14 9.19238L1099.78 2.82812L1093.41 9.19238L1093.28 9.05664L1093.14 9.19238L1086.78 2.82812L1080.41 9.19238L1080.28 9.05664L1080.14 9.19238L1073.78 2.82812L1067.41 9.19238L1067.28 9.05664L1067.14 9.19238L1060.78 2.82812L1054.41 9.19238L1054.28 9.05664L1054.14 9.19238L1047.78 2.82812L1041.41 9.19238L1041.28 9.05664L1041.14 9.19238L1034.78 2.82812L1028.41 9.19238L1028.28 9.05664L1028.14 9.19238L1021.78 2.82812L1015.41 9.19238L1015.28 9.05664L1015.14 9.19238L1008.78 2.82812L1002.41 9.19238L1002.28 9.05664L1002.14 9.19238L995.778 2.82812L989.414 9.19238L989.278 9.05664L989.143 9.19238L982.778 2.82812L976.414 9.19238L976.278 9.05664L976.143 9.19238L969.778 2.82812L963.414 9.19238L963.278 9.05664L963.143 9.19238L956.778 2.82812L950.414 9.19238L950.278 9.05664L950.143 9.19238L943.778 2.82812L937.414 9.19238L937.278 9.05664L937.143 9.19238L930.778 2.82812L924.414 9.19238L924.278 9.05664L924.143 9.19238L917.778 2.82812L911.414 9.19238L911.278 9.05664L911.143 9.19238L904.778 2.82812L898.414 9.19238L898.278 9.05664L898.143 9.19238L891.778 2.82812L885.414 9.19238L885.278 9.05664L885.143 9.19238L878.778 2.82812L872.414 9.19238L872.278 9.05664L872.143 9.19238L865.778 2.82812L859.414 9.19238L859.278 9.05664L859.143 9.19238L852.778 2.82812L846.414 9.19238L846.278 9.05664L846.143 9.19238L839.778 2.82812L833.414 9.19238L833.278 9.05664L833.143 9.19238L826.778 2.82812L820.414 9.19238L820.278 9.05664L820.143 9.19238L813.778 2.82812L807.414 9.19238L807.278 9.05664L807.143 9.19238L800.778 2.82812L794.414 9.19238L794.278 9.05664L794.143 9.19238L787.778 2.82812L781.414 9.19238L781.278 9.05664L781.143 9.19238L774.778 2.82812L768.414 9.19238L768.278 9.05664L768.143 9.19238L761.778 2.82812L755.414 9.19238L755.278 9.05664L755.143 9.19238L748.778 2.82812L742.414 9.19238L742.278 9.05664L742.143 9.19238L735.778 2.82812L729.414 9.19238L729.278 9.05664L729.143 9.19238L722.778 2.82812L716.414 9.19238L716.278 9.05664L716.143 9.19238L709.778 2.82812L703.414 9.19238L703.278 9.05664L703.143 9.19238L696.778 2.82812L690.414 9.19238L690.278 9.05664L690.143 9.19238L683.778 2.82812L677.414 9.19238L677.278 9.05664L677.143 9.19238L670.778 2.82812L664.414 9.19238L664.278 9.05664L664.143 9.19238L657.778 2.82812L651.414 9.19238L651.278 9.05664L651.143 9.19238L644.778 2.82812L638.414 9.19238L638.278 9.05664L638.143 9.19238L631.778 2.82812L625.414 9.19238L625.278 9.05664L625.143 9.19238L618.778 2.82812L612.414 9.19238L612.278 9.05664L612.143 9.19238L605.778 2.82812L599.414 9.19238L599.278 9.05664L599.143 9.19238L592.778 2.82812L586.414 9.19238L586.278 9.05664L586.143 9.19238L579.778 2.82812L573.414 9.19238L573.278 9.05664L573.143 9.19238L566.778 2.82812L560.414 9.19238L560.278 9.05664L560.143 9.19238L553.778 2.82812L547.414 9.19238L547.278 9.05664L547.143 9.19238L540.778 2.82812L534.414 9.19238L534.278 9.05664L534.143 9.19238L527.778 2.82812L521.414 9.19238L521.278 9.05664L521.143 9.19238L514.778 2.82812L508.414 9.19238L508.278 9.05664L508.143 9.19238L501.778 2.82812L495.414 9.19238L495.278 9.05664L495.143 9.19238L488.778 2.82812L482.414 9.19238L482.278 9.05664L482.143 9.19238L475.778 2.82812L469.414 9.19238L469.278 9.05664L469.143 9.19238L462.778 2.82812L456.414 9.19238L456.278 9.05664L456.143 9.19238L449.778 2.82812L443.414 9.19238L443.278 9.05664L443.143 9.19238L436.778 2.82812L430.414 9.19238L430.278 9.05664L430.143 9.19238L423.778 2.82812L417.414 9.19238L417.278 9.05664L417.143 9.19238L410.778 2.82812L404.414 9.19238L404.278 9.05664L404.143 9.19238L397.778 2.82812L391.414 9.19238L391.278 9.05664L391.143 9.19238L384.778 2.82812L378.414 9.19238L378.278 9.05664L378.143 9.19238L371.778 2.82812L365.414 9.19238L365.278 9.05664L365.143 9.19238L358.778 2.82812L352.414 9.19238L352.278 9.05664L352.143 9.19238L345.778 2.82812L339.414 9.19238L339.278 9.05664L339.143 9.19238L332.778 2.82812L326.414 9.19238L326.278 9.05664L326.143 9.19238L319.778 2.82812L313.414 9.19238L313.278 9.05664L313.143 9.19238L306.778 2.82812L300.414 9.19238L300.278 9.05664L300.143 9.19238L293.778 2.82812L287.414 9.19238L287.278 9.05664L287.143 9.19238L280.778 2.82812L274.414 9.19238L274.278 9.05664L274.143 9.19238L267.778 2.82812L261.414 9.19238L261.278 9.05664L261.143 9.19238L254.778 2.82812L248.414 9.19238L248.278 9.05664L248.143 9.19238L241.778 2.82812L235.414 9.19238L235.278 9.05664L235.143 9.19238L228.778 2.82812L222.414 9.19238L222.278 9.05664L222.143 9.19238L215.778 2.82812L209.414 9.19238L209.278 9.05664L209.143 9.19238L202.778 2.82812L196.414 9.19238L196.278 9.05664L196.143 9.19238L189.778 2.82812L183.414 9.19238L183.278 9.05664L183.143 9.19238L176.778 2.82812L170.414 9.19238L170.278 9.05664L170.143 9.19238L163.778 2.82812L157.414 9.19238L157.278 9.05664L157.143 9.19238L150.778 2.82812L144.414 9.19238L144.278 9.05664L144.143 9.19238L137.778 2.82812L131.414 9.19238L131.278 9.05664L131.143 9.19238L124.778 2.82812L118.414 9.19238L118.278 9.05664L118.143 9.19238L111.778 2.82812L105.414 9.19238L105.278 9.05664L105.143 9.19238L98.7783 2.82812L92.4141 9.19238L92.2783 9.05664L92.1426 9.19238L85.7783 2.82812L79.4141 9.19238L79.2783 9.05664L79.1426 9.19238L72.7783 2.82812L66.4141 9.19238L66.2783 9.05664L66.1426 9.19238L59.7783 2.82812L53.4141 9.19238L53.2783 9.05664L53.1426 9.19238L46.7783 2.82812L40.4141 9.19238L40.2783 9.05664L40.1426 9.19238L33.7783 2.82812L27.4141 9.19238L27.2783 9.05664L27.1426 9.19238L20.7783 2.82812L14.4141 9.19238L14.2783 9.05664L14.1426 9.19238L7.77832 2.82812L1.41406 9.19238L0 7.77832L7.77832 0L14.2783 6.5L20.7783 0L27.2783 6.5L33.7783 0L40.2783 6.5L46.7783 0L53.2783 6.5L59.7783 0L66.2783 6.5L72.7783 0L79.2783 6.5L85.7783 0L92.2783 6.5L98.7783 0L105.278 6.5L111.778 0L118.278 6.5L124.778 0L131.278 6.5L137.778 0L144.278 6.5L150.778 0L157.278 6.5L163.778 0L170.278 6.5L176.778 0L183.278 6.5L189.778 0L196.278 6.5L202.778 0L209.278 6.5L215.778 0L222.278 6.5L228.778 0L235.278 6.5L241.778 0L248.278 6.5L254.778 0L261.278 6.5L267.778 0L274.278 6.5L280.778 0L287.278 6.5L293.778 0L300.278 6.5L306.778 0L313.278 6.5L319.778 0L326.278 6.5L332.778 0L339.278 6.5L345.778 0L352.278 6.5L358.778 0L365.278 6.5L371.778 0L378.278 6.5L384.778 0L391.278 6.5L397.778 0L404.278 6.5L410.778 0L417.278 6.5L423.778 0L430.278 6.5L436.778 0L443.278 6.5L449.778 0L456.278 6.5L462.778 0L469.278 6.5L475.778 0L482.278 6.5L488.778 0L495.278 6.5L501.778 0L508.278 6.5L514.778 0L521.278 6.5L527.778 0L534.278 6.5L540.778 0L547.278 6.5L553.778 0L560.278 6.5L566.778 0L573.278 6.5L579.778 0L586.278 6.5L592.778 0L599.278 6.5L605.778 0L612.278 6.5L618.778 0L625.278 6.5L631.778 0L638.278 6.5L644.778 0L651.278 6.5L657.778 0L664.278 6.5L670.778 0L677.278 6.5L683.778 0L690.278 6.5L696.778 0L703.278 6.5L709.778 0L716.278 6.5L722.778 0L729.278 6.5L735.778 0L742.278 6.5L748.778 0L755.278 6.5L761.778 0L768.278 6.5L774.778 0L781.278 6.5L787.778 0L794.278 6.5L800.778 0L807.278 6.5L813.778 0L820.278 6.5L826.778 0L833.278 6.5L839.778 0L846.278 6.5L852.778 0L859.278 6.5L865.778 0L872.278 6.5L878.778 0L885.278 6.5L891.778 0L898.278 6.5L904.778 0L911.278 6.5L917.778 0L924.278 6.5L930.778 0L937.278 6.5L943.778 0L950.278 6.5L956.778 0L963.278 6.5L969.778 0L976.278 6.5L982.778 0L989.278 6.5L995.778 0L1002.28 6.5L1008.78 0L1015.28 6.5L1021.78 0L1028.28 6.5L1034.78 0L1041.28 6.5L1047.78 0L1054.28 6.5L1060.78 0L1067.28 6.5L1073.78 0L1080.28 6.5L1086.78 0L1093.28 6.5L1099.78 0L1106.28 6.5L1112.78 0L1119.28 6.5L1125.78 0L1132.28 6.5L1138.78 0L1145.28 6.5L1151.78 0L1158.28 6.5L1164.78 0L1171.28 6.5L1177.78 0L1184.28 6.5L1190.78 0L1197.28 6.5L1203.78 0L1210.28 6.5L1216.78 0L1223.28 6.5L1229.78 0L1236.28 6.5L1242.78 0L1249.28 6.5L1255.78 0L1262.28 6.5L1268.78 0L1275.28 6.5L1281.78 0L1288.28 6.5L1294.78 0L1301.28 6.5L1307.78 0L1314.28 6.5L1320.78 0L1327.28 6.5L1333.78 0L1340.28 6.5L1346.78 0L1353.28 6.5L1359.78 0L1366.28 6.5L1372.78 0L1379.28 6.5L1385.78 0L1392.28 6.5L1398.78 0L1405.28 6.5L1411.78 0L1418.28 6.5L1424.78 0L1431.28 6.5L1437.78 0L1444.28 6.5L1450.78 0L1458.56 7.77832Z" fill="black"/>
</svg>
